<?xml version="1.0" encoding="UTF-8" standalone="no"?>
<!-- Created with Inkscape (http://www.inkscape.org/) -->

<svg
   xmlns:dc="http://purl.org/dc/elements/1.1/"
   xmlns:cc="http://creativecommons.org/ns#"
   xmlns:rdf="http://www.w3.org/1999/02/22-rdf-syntax-ns#"
   xmlns:svg="http://www.w3.org/2000/svg"
   xmlns="http://www.w3.org/2000/svg"
   xmlns:sodipodi="http://sodipodi.sourceforge.net/DTD/sodipodi-0.dtd"
   xmlns:inkscape="http://www.inkscape.org/namespaces/inkscape"
   width="210mm"
   height="297mm"
   viewBox="0 0 744.09448819 1052.3622047"
   id="svg2"
   version="1.1"
   inkscape:version="0.91 r"
   sodipodi:docname="vectorgraphics.svg">
  <defs
     id="defs4" />
  <sodipodi:namedview
     id="base"
     pagecolor="#ffffff"
     bordercolor="#666666"
     borderopacity="1.0"
     inkscape:pageopacity="0.0"
     inkscape:pageshadow="2"
     inkscape:zoom="0.9899495"
     inkscape:cx="504.02649"
     inkscape:cy="532.55469"
     inkscape:document-units="px"
     inkscape:current-layer="layer1"
     showgrid="true"
     inkscape:snap-global="false"
     inkscape:window-width="1280"
     inkscape:window-height="748"
     inkscape:window-x="0"
     inkscape:window-y="0"
     inkscape:window-maximized="1">
    <inkscape:grid
       type="xygrid"
       id="grid3336" />
  </sodipodi:namedview>
  <metadata
     id="metadata7">
    <rdf:RDF>
      <cc:Work
         rdf:about="">
        <dc:format>image/svg+xml</dc:format>
        <dc:type
           rdf:resource="http://purl.org/dc/dcmitype/StillImage" />
        <dc:title />
      </cc:Work>
    </rdf:RDF>
  </metadata>
  <g
     inkscape:label="Ebene 1"
     inkscape:groupmode="layer"
     id="layer1">
    <path
       style="fill:#d40000;fill-rule:evenodd;stroke:#000000;stroke-width:1px;stroke-linecap:butt;stroke-linejoin:miter;stroke-opacity:1"
       d="m 381.42857,610.89773 c 0,0 14.20146,-2.21408 21.07143,-4.24981 18.90658,-5.60245 35.28562,-21.35038 55,-21.78571 16.74951,-0.36987 30.24595,11.88111 47.5,16.42857 13.83312,3.64584 35.71429,0.71428 35.71429,0.71428 0,0 -38.79876,6.77954 -31.78572,12.5 5.74455,4.68577 12.56273,5.58014 19.28572,6.42858 13.37992,1.68854 40.35714,-2.85715 40.35714,-2.85715 l -20,10 47.5,2.85714 c 0,0 -23.09305,1.93171 -34.64286,2.85714 -10.71231,0.85834 -21.39735,2.65644 -32.14285,2.50001 -10.05617,-0.1464 -30.00001,-3.21429 -30.00001,-3.21429 l 33.92858,12.5 c 0,0 -42.30026,4.77304 -62.85715,0.71428 -20.93332,-4.13307 -38.50973,-18.80669 -58.92857,-25 -9.80861,-2.97508 -30.2092,-5.73966 -30.2092,-5.73966 z"
       id="path3338"
       inkscape:connector-curvature="0"
       sodipodi:nodetypes="caascsacccaaccaacc"
       inkscape:export-xdpi="62.670097"
       inkscape:export-ydpi="62.670097" />
    <path
       sodipodi:nodetypes="caascsacccaaccaacc"
       inkscape:connector-curvature="0"
       id="path3342"
       d="m 255.38389,610.89773 c 0,0 -14.20146,-2.21408 -21.07143,-4.24981 -18.90658,-5.60245 -35.28562,-21.35038 -55,-21.78571 -16.74951,-0.36987 -30.24595,11.88111 -47.5,16.42857 -13.83312,3.64584 -35.71429,0.71428 -35.71429,0.71428 0,0 38.79876,6.77954 31.78572,12.5 -5.74455,4.68577 -12.56273,5.58014 -19.28572,6.42858 -13.37992,1.68854 -40.35714,-2.85715 -40.35714,-2.85715 l 20,10 -47.5,2.85714 c 0,0 23.09305,1.93171 34.64286,2.85714 10.71231,0.85834 21.39735,2.65644 32.14285,2.50001 10.05617,-0.1464 30.00001,-3.21429 30.00001,-3.21429 l -33.92858,12.5 c 0,0 42.30026,4.77304 62.85715,0.71428 20.93332,-4.13307 38.50973,-18.80669 58.92857,-25 9.80861,-2.97508 30.2092,-5.73966 30.2092,-5.73966 z"
       style="fill:#d40000;fill-rule:evenodd;stroke:#000000;stroke-width:1px;stroke-linecap:butt;stroke-linejoin:miter;stroke-opacity:1"
       inkscape:export-xdpi="62.670097"
       inkscape:export-ydpi="62.670097" />
    <path
       style="fill:#f9f9f9;fill-rule:evenodd;stroke:#000000;stroke-width:1px;stroke-linecap:butt;stroke-linejoin:miter;stroke-opacity:1"
       d="m 205,427.71935 0.35714,-15.35714 14.64286,-9.64286 15.35714,4.64286 9.28572,5 -5,20 5.35714,5.35714 -24.64286,10 -20,-11.07143 z"
       id="path3336"
       inkscape:connector-curvature="0"
       inkscape:export-xdpi="90"
       inkscape:export-ydpi="90" />
    <path
       style="fill:#f9f9f9;fill-rule:evenodd;stroke:#000000;stroke-width:1px;stroke-linecap:butt;stroke-linejoin:miter;stroke-opacity:1"
       d="m 299.28571,402.00507 16.07143,-9.28572 25.35714,4.64286 4.64286,15.35714 -11.07143,15.35714 -28.92857,-10.35714 z"
       id="path3339"
       inkscape:connector-curvature="0"
       inkscape:export-xdpi="90"
       inkscape:export-ydpi="90" />
    <path
       style="fill:#f9f9f9;fill-rule:evenodd;stroke:#000000;stroke-width:1px;stroke-linecap:butt;stroke-linejoin:miter;stroke-opacity:1"
       d="m 275,462.36221 10.71428,0.35714 9.28572,5 5.35714,-5.71428 9.64286,5.71428 5,10 -4.64286,9.28572 -25.35714,5.71428 -15,-5.35714 -5,-9.64286 5.35714,-5.71428 z"
       id="path3341"
       inkscape:connector-curvature="0"
       inkscape:export-xdpi="90"
       inkscape:export-ydpi="90" />
    <path
       style="fill:#f9f9f9;fill-rule:evenodd;stroke:#000000;stroke-width:1px;stroke-linecap:butt;stroke-linejoin:miter;stroke-opacity:1"
       d="m 368.92857,458.43364 11.78571,-11.07143 6.78572,3.57143 -2.5,12.5 -13.21429,-0.71429 z"
       id="path3343"
       inkscape:connector-curvature="0"
       inkscape:export-xdpi="90"
       inkscape:export-ydpi="90" />
    <path
       style="fill:#f9f9f9;fill-rule:evenodd;stroke:#000000;stroke-width:1px;stroke-linecap:butt;stroke-linejoin:miter;stroke-opacity:1"
       d="M 145.71428,455.93364 130,462.36221 l -4.64286,14.64286 5,7.85714 L 150,491.64792 161.78571,478.79078 155,477.00507 l 6.42857,-8.57143 -9.64286,-13.57143 z"
       id="path3345"
       inkscape:connector-curvature="0"
       inkscape:export-xdpi="90"
       inkscape:export-ydpi="90" />
  </g>
</svg>
